<mxfile host="app.diagrams.net" modified="2021-01-15T19:06:20.116Z" agent="5.0 (Macintosh; Intel Mac OS X 10_15_7) AppleWebKit/537.36 (KHTML, like Gecko) Chrome/87.0.4280.67 Safari/537.36" etag="Uf_0mOdfHN-W5lpsfF2s" version="14.2.3" type="github">
  <diagram id="ICrMN9pPmfEcwAW1j2xA" name="Page-2">
    <mxGraphModel dx="832" dy="470" grid="1" gridSize="10" guides="1" tooltips="1" connect="1" arrows="1" fold="1" page="1" pageScale="1" pageWidth="850" pageHeight="1100" background="#F4F1DE" math="0" shadow="0">
      <root>
        <mxCell id="aKos_OEdHaS5hfhMAC9m-0" />
        <mxCell id="aKos_OEdHaS5hfhMAC9m-1" parent="aKos_OEdHaS5hfhMAC9m-0" />
        <mxCell id="aKos_OEdHaS5hfhMAC9m-40" style="edgeStyle=orthogonalEdgeStyle;rounded=0;orthogonalLoop=1;jettySize=auto;html=1;exitX=0;exitY=0.25;exitDx=0;exitDy=0;entryX=0.5;entryY=0;entryDx=0;entryDy=0;labelBackgroundColor=#F4F1DE;strokeColor=#E07A5F;fontColor=#393C56;" edge="1" parent="aKos_OEdHaS5hfhMAC9m-1" source="aKos_OEdHaS5hfhMAC9m-2" target="aKos_OEdHaS5hfhMAC9m-7">
          <mxGeometry relative="1" as="geometry" />
        </mxCell>
        <mxCell id="aKos_OEdHaS5hfhMAC9m-2" value="&lt;h2&gt;Salesforce Community&lt;/h2&gt;" style="rounded=0;whiteSpace=wrap;html=1;fillColor=#F2CC8F;strokeColor=#E07A5F;fontColor=#393C56;" vertex="1" parent="aKos_OEdHaS5hfhMAC9m-1">
          <mxGeometry x="365" y="30" width="115" height="100" as="geometry" />
        </mxCell>
        <mxCell id="aKos_OEdHaS5hfhMAC9m-7" value="Open Solvvy Chat" style="rounded=0;whiteSpace=wrap;html=1;fillColor=#F2CC8F;strokeColor=#E07A5F;fontColor=#393C56;" vertex="1" parent="aKos_OEdHaS5hfhMAC9m-1">
          <mxGeometry x="170" y="140" width="120" height="80" as="geometry" />
        </mxCell>
        <mxCell id="aKos_OEdHaS5hfhMAC9m-13" style="edgeStyle=orthogonalEdgeStyle;rounded=0;orthogonalLoop=1;jettySize=auto;html=1;exitX=1;exitY=0.5;exitDx=0;exitDy=0;labelBackgroundColor=#F4F1DE;strokeColor=#E07A5F;fontColor=#393C56;" edge="1" parent="aKos_OEdHaS5hfhMAC9m-1" source="aKos_OEdHaS5hfhMAC9m-11" target="aKos_OEdHaS5hfhMAC9m-12">
          <mxGeometry relative="1" as="geometry">
            <mxPoint x="398" y="350" as="targetPoint" />
          </mxGeometry>
        </mxCell>
        <mxCell id="aKos_OEdHaS5hfhMAC9m-12" value="If question not answered" style="rhombus;whiteSpace=wrap;html=1;fillColor=#F2CC8F;strokeColor=#E07A5F;fontColor=#393C56;" vertex="1" parent="aKos_OEdHaS5hfhMAC9m-1">
          <mxGeometry x="345" y="320" width="115" height="120" as="geometry" />
        </mxCell>
        <mxCell id="aKos_OEdHaS5hfhMAC9m-22" style="edgeStyle=orthogonalEdgeStyle;rounded=0;orthogonalLoop=1;jettySize=auto;html=1;exitX=1;exitY=0.5;exitDx=0;exitDy=0;labelBackgroundColor=#F4F1DE;strokeColor=#E07A5F;fontColor=#393C56;entryX=0.25;entryY=0;entryDx=0;entryDy=0;" edge="1" parent="aKos_OEdHaS5hfhMAC9m-1" source="aKos_OEdHaS5hfhMAC9m-15" target="aKos_OEdHaS5hfhMAC9m-18">
          <mxGeometry relative="1" as="geometry">
            <mxPoint x="560" y="570" as="targetPoint" />
            <Array as="points">
              <mxPoint x="290" y="480" />
              <mxPoint x="420" y="480" />
              <mxPoint x="420" y="570" />
              <mxPoint x="390" y="570" />
            </Array>
          </mxGeometry>
        </mxCell>
        <mxCell id="aKos_OEdHaS5hfhMAC9m-27" style="edgeStyle=orthogonalEdgeStyle;rounded=0;orthogonalLoop=1;jettySize=auto;html=1;exitX=1;exitY=0.5;exitDx=0;exitDy=0;entryX=0.5;entryY=0;entryDx=0;entryDy=0;labelBackgroundColor=#F4F1DE;strokeColor=#E07A5F;fontColor=#393C56;" edge="1" parent="aKos_OEdHaS5hfhMAC9m-1" source="aKos_OEdHaS5hfhMAC9m-18" target="aKos_OEdHaS5hfhMAC9m-24">
          <mxGeometry relative="1" as="geometry" />
        </mxCell>
        <mxCell id="aKos_OEdHaS5hfhMAC9m-18" value="Chat Transfer to Agent" style="rounded=0;whiteSpace=wrap;html=1;fillColor=#F2CC8F;strokeColor=#E07A5F;fontColor=#393C56;" vertex="1" parent="aKos_OEdHaS5hfhMAC9m-1">
          <mxGeometry x="357.5" y="540" width="130" height="80" as="geometry" />
        </mxCell>
        <mxCell id="aKos_OEdHaS5hfhMAC9m-46" style="edgeStyle=orthogonalEdgeStyle;rounded=0;orthogonalLoop=1;jettySize=auto;html=1;entryX=0.5;entryY=0;entryDx=0;entryDy=0;labelBackgroundColor=#F4F1DE;strokeColor=#E07A5F;fontColor=#393C56;" edge="1" parent="aKos_OEdHaS5hfhMAC9m-1" source="aKos_OEdHaS5hfhMAC9m-24" target="aKos_OEdHaS5hfhMAC9m-29">
          <mxGeometry relative="1" as="geometry" />
        </mxCell>
        <mxCell id="aKos_OEdHaS5hfhMAC9m-24" value="Chat Initialization" style="rounded=0;whiteSpace=wrap;html=1;fillColor=#F2CC8F;strokeColor=#E07A5F;fontColor=#393C56;" vertex="1" parent="aKos_OEdHaS5hfhMAC9m-1">
          <mxGeometry x="570" y="600" width="140" height="80" as="geometry" />
        </mxCell>
        <mxCell id="aKos_OEdHaS5hfhMAC9m-29" value="Save&amp;nbsp;Chat Transcript" style="rounded=0;whiteSpace=wrap;html=1;fillColor=#F2CC8F;strokeColor=#E07A5F;fontColor=#393C56;" vertex="1" parent="aKos_OEdHaS5hfhMAC9m-1">
          <mxGeometry x="360" y="700" width="140" height="80" as="geometry" />
        </mxCell>
        <mxCell id="aKos_OEdHaS5hfhMAC9m-11" value="Articles from Solvvy Database" style="rounded=0;whiteSpace=wrap;html=1;fillColor=#F2CC8F;strokeColor=#E07A5F;fontColor=#393C56;" vertex="1" parent="aKos_OEdHaS5hfhMAC9m-1">
          <mxGeometry x="170" y="280" width="120" height="80" as="geometry" />
        </mxCell>
        <mxCell id="aKos_OEdHaS5hfhMAC9m-33" style="edgeStyle=orthogonalEdgeStyle;rounded=0;orthogonalLoop=1;jettySize=auto;html=1;exitX=0.5;exitY=1;exitDx=0;exitDy=0;labelBackgroundColor=#F4F1DE;strokeColor=#E07A5F;fontColor=#393C56;" edge="1" parent="aKos_OEdHaS5hfhMAC9m-1" source="aKos_OEdHaS5hfhMAC9m-7" target="aKos_OEdHaS5hfhMAC9m-11">
          <mxGeometry relative="1" as="geometry">
            <mxPoint x="190" y="420" as="targetPoint" />
            <mxPoint x="230" y="220" as="sourcePoint" />
          </mxGeometry>
        </mxCell>
        <mxCell id="aKos_OEdHaS5hfhMAC9m-15" value="Connects to Chat Bot" style="rounded=0;whiteSpace=wrap;html=1;fillColor=#F2CC8F;strokeColor=#E07A5F;fontColor=#393C56;" vertex="1" parent="aKos_OEdHaS5hfhMAC9m-1">
          <mxGeometry x="162.5" y="470" width="127.5" height="80" as="geometry" />
        </mxCell>
        <mxCell id="aKos_OEdHaS5hfhMAC9m-37" style="edgeStyle=orthogonalEdgeStyle;rounded=0;orthogonalLoop=1;jettySize=auto;html=1;exitX=0.5;exitY=1;exitDx=0;exitDy=0;labelBackgroundColor=#F4F1DE;strokeColor=#E07A5F;fontColor=#393C56;" edge="1" parent="aKos_OEdHaS5hfhMAC9m-1" source="aKos_OEdHaS5hfhMAC9m-12" target="aKos_OEdHaS5hfhMAC9m-15">
          <mxGeometry relative="1" as="geometry">
            <mxPoint x="398" y="590" as="targetPoint" />
            <mxPoint x="397.5000000000002" y="440" as="sourcePoint" />
            <Array as="points">
              <mxPoint x="403" y="460" />
              <mxPoint x="318" y="460" />
              <mxPoint x="318" y="450" />
              <mxPoint x="226" y="450" />
            </Array>
          </mxGeometry>
        </mxCell>
        <mxCell id="aKos_OEdHaS5hfhMAC9m-48" value="Embedded Solvvy Javascript" style="text;html=1;strokeColor=none;fillColor=none;align=center;verticalAlign=middle;whiteSpace=wrap;rounded=0;sketch=0;fontColor=#393C56;" vertex="1" parent="aKos_OEdHaS5hfhMAC9m-1">
          <mxGeometry x="240" y="80" width="110" height="40" as="geometry" />
        </mxCell>
        <mxCell id="aKos_OEdHaS5hfhMAC9m-49" style="edgeStyle=orthogonalEdgeStyle;curved=0;rounded=1;sketch=0;orthogonalLoop=1;jettySize=auto;html=1;exitX=0.5;exitY=1;exitDx=0;exitDy=0;strokeColor=#E07A5F;fillColor=#F2CC8F;fontColor=#393C56;" edge="1" parent="aKos_OEdHaS5hfhMAC9m-1" source="aKos_OEdHaS5hfhMAC9m-2" target="aKos_OEdHaS5hfhMAC9m-2">
          <mxGeometry relative="1" as="geometry" />
        </mxCell>
      </root>
    </mxGraphModel>
  </diagram>
</mxfile>
